<?xml version="1.0" encoding="UTF-8" standalone="no"?>
<svg
   xmlns:dc="http://purl.org/dc/elements/1.1/"
   xmlns:cc="http://creativecommons.org/ns#"
   xmlns:rdf="http://www.w3.org/1999/02/22-rdf-syntax-ns#"
   xmlns:svg="http://www.w3.org/2000/svg"
   xmlns="http://www.w3.org/2000/svg"
   width="160mm"
   height="160mm"
   viewBox="0 0 160 160"
   version="1.1"
   id="svg8">
  <defs
     id="defs2" />
  <metadata
     id="metadata5">
    <rdf:RDF>
      <cc:Work
         rdf:about="">
        <dc:format>image/svg+xml</dc:format>
        <dc:type
           rdf:resource="http://purl.org/dc/dcmitype/StillImage" />
        <dc:title></dc:title>
      </cc:Work>
    </rdf:RDF>
  </metadata>
  <rect
     style="fill:#ff0000;stroke-width:0.17735"
     id="rect840"
     width="160"
     height="160"
     x="1.4210855e-14"
     y="7.1054274e-15" />
  <rect
     style="fill:#ffffff;stroke-width:0.747524"
     id="rect838"
     width="140"
     height="140"
     x="10"
     y="10" />
  <g
     id="layer1"
     transform="translate(9.9999997,9.9999997)">
    <rect
       style="fill:#ff0000;stroke-width:0.107381"
       id="rect837"
       width="70"
       height="70"
       x="0"
       y="-3.5527137e-15" />
    <path
       id="rect839"
       style="fill:#ffffff;stroke-width:0.202315"
       d="M 10,10 V 60.000048 H 59.999529 V 50.000142 H 19.999906 V 19.999906 H 59.999529 V 10 Z" />
    <path
       id="rect884"
       style="fill:#ff0000;stroke-width:0.412135"
       d="M 302.36133,37.794922 V 226.77148 h 37.79687 v -75.58984 h 113.38477 v 75.58984 h 37.79492 V 37.794922 Z M 340.1582,75.589844 H 453.54297 V 113.38672 H 340.1582 Z"
       transform="scale(0.26458333)" />
    <path
       id="rect958"
       style="fill:#ff0000;stroke-width:0.928346"
       d="M 37.794922,302.36133 V 491.33789 H 75.589844 V 340.1582 h 37.796876 v -37.79687 z"
       transform="scale(0.26458333)" />
    <rect
       style="fill:#ff0000;stroke-width:0.28776"
       id="rect960-5"
       width="10"
       height="20"
       x="30"
       y="90" />
    <path
       id="rect960-6"
       style="fill:#ff0000;stroke-width:0.769047"
       d="m 151.18164,302.36133 v 37.79687 h 37.79492 v 151.17969 h 37.79492 V 302.36133 Z"
       transform="scale(0.26458333)" />
    <path
       id="rect884-7-9"
       style="fill:#ff0000;stroke-width:0.412135"
       d="m 302.36133,302.36133 v 113.38672 h 151.18164 v 37.79492 H 302.36133 v 37.79492 H 491.33789 V 377.95312 H 340.1582 V 340.1582 h 151.17969 v -37.79687 z"
       transform="scale(0.26458333)" />
  </g>
</svg>
